<?xml version="1.0" encoding="utf-8"?>
<!-- Generator: Adobe Illustrator 24.0.0, SVG Export Plug-In . SVG Version: 6.00 Build 0)  -->
<svg version="1.1" id="Layer_1" xmlns="http://www.w3.org/2000/svg" xmlns:xlink="http://www.w3.org/1999/xlink" x="0px" y="0px"
	 viewBox="0 0 76 66" style="enable-background:new 0 0 76 66;" xml:space="preserve">
<style type="text/css">
	.st0{clip-path:url(#SVGID_2_);fill:url(#SVGID_3_);}
	.st1{fill:#FFFFFF;}
</style>
<g>
	<g>
		<defs>
			<path id="SVGID_1_" d="M18.29-0.09c-0.88,0-1.72,0.39-2.3,1.06c-0.58,0.67-0.83,1.55-0.7,2.43l4.55,30.34
				c0.13,0.9,0.66,1.69,1.44,2.15l15.17,9.1c0.48,0.29,1.02,0.43,1.56,0.43c0.54,0,1.08-0.15,1.56-0.43l15.17-9.1
				c0.78-0.47,1.31-1.26,1.44-2.15L60.74,3.4c0.13-0.87-0.13-1.76-0.7-2.43c-0.58-0.67-1.42-1.06-2.3-1.06H18.29z"/>
		</defs>
		<clipPath id="SVGID_2_">
			<use xlink:href="#SVGID_1_"  style="overflow:visible;"/>
		</clipPath>
		
			<linearGradient id="SVGID_3_" gradientUnits="userSpaceOnUse" x1="-38.7565" y1="113.2528" x2="-38.2705" y2="113.2528" gradientTransform="matrix(93.6442 0 0 -93.6442 3644.5796 10628.1377)">
			<stop  offset="0" style="stop-color:#00AF4B"/>
			<stop  offset="1" style="stop-color:#00FF4B"/>
		</linearGradient>
		<rect x="15.16" y="-0.09" class="st0" width="45.71" height="45.51"/>
	</g>
	<g>
		<path class="st1" d="M38.01,32.7c-3.26,0-6.33-1.27-8.63-3.57c-2.31-2.31-3.58-5.37-3.58-8.63c0-3.26,1.27-6.33,3.58-8.63
			c2.3-2.3,5.37-3.57,8.63-3.57c3.26,0,6.33,1.27,8.63,3.57l-3.24,3.24c-1.44-1.44-3.36-2.23-5.39-2.23c-2.04,0-3.95,0.8-5.39,2.23
			c-1.44,1.44-2.23,3.36-2.23,5.39c0,2.04,0.79,3.95,2.23,5.39c1.44,1.44,3.36,2.23,5.39,2.23c2.04,0,3.95-0.8,5.39-2.23l3.24,3.24
			C44.34,31.43,41.27,32.7,38.01,32.7"/>
		<g>
			<path d="M5.32,55.76c1.44,0,2.5,0.45,3.47,1.33c0.13,0.11,0.13,0.29,0.01,0.4l-1.12,1.16c-0.1,0.1-0.26,0.1-0.36,0
				c-0.53-0.47-1.23-0.73-1.94-0.73c-1.62,0-2.81,1.35-2.81,2.96c0,1.59,1.21,2.91,2.83,2.91c0.68,0,1.41-0.24,1.92-0.69
				c0.1-0.09,0.29-0.09,0.37,0.01l1.12,1.19c0.1,0.1,0.09,0.29-0.02,0.39c-0.98,0.95-2.21,1.39-3.49,1.39
				c-2.87,0-5.18-2.28-5.18-5.15C0.14,58.07,2.45,55.76,5.32,55.76"/>
			<path d="M11.97,56.17c0-0.14,0.12-0.27,0.27-0.27h5.94c0.16,0,0.27,0.13,0.27,0.27v1.56c0,0.14-0.11,0.27-0.27,0.27h-3.98v1.78
				h3.27c0.14,0,0.27,0.13,0.27,0.27v1.56c0,0.16-0.13,0.27-0.27,0.27h-3.27v1.94h3.98c0.16,0,0.27,0.13,0.27,0.27v1.56
				c0,0.14-0.11,0.27-0.27,0.27h-5.94c-0.16,0-0.27-0.13-0.27-0.27V56.17z"/>
			<path d="M25.41,60.21c0.62,0,1.13-0.49,1.13-1.14c0-0.6-0.52-1.06-1.13-1.06h-1.36v2.2H25.41z M21.81,56.17
				c0-0.14,0.11-0.27,0.27-0.27h3.46c1.77,0,3.22,1.44,3.22,3.17c0,1.78-1.45,3.23-3.2,3.23h-1.51v3.37c0,0.14-0.13,0.27-0.27,0.27
				h-1.69c-0.16,0-0.27-0.13-0.27-0.27V56.17z"/>
			<path d="M32.99,58.01h-2.05c-0.16,0-0.27-0.13-0.27-0.27v-1.56c0-0.14,0.11-0.27,0.27-0.27h6.37c0.16,0,0.27,0.13,0.27,0.27v1.56
				c0,0.14-0.12,0.27-0.27,0.27h-2.05v7.66c0,0.14-0.13,0.27-0.27,0.27h-1.72c-0.14,0-0.27-0.13-0.27-0.27V58.01z"/>
			<path d="M40.45,56.17c0-0.14,0.12-0.27,0.27-0.27h5.94c0.16,0,0.27,0.13,0.27,0.27v1.56c0,0.14-0.12,0.27-0.27,0.27h-3.98v1.78
				h3.27c0.14,0,0.27,0.13,0.27,0.27v1.56c0,0.16-0.13,0.27-0.27,0.27h-3.27v1.94h3.98c0.16,0,0.27,0.13,0.27,0.27v1.56
				c0,0.14-0.12,0.27-0.27,0.27h-5.94c-0.16,0-0.27-0.13-0.27-0.27V56.17z"/>
			<path d="M51.59,58.01h-2.05c-0.16,0-0.27-0.13-0.27-0.27v-1.56c0-0.14,0.11-0.27,0.27-0.27h6.37c0.16,0,0.27,0.13,0.27,0.27v1.56
				c0,0.14-0.11,0.27-0.27,0.27h-2.05v7.66c0,0.14-0.13,0.27-0.27,0.27h-1.72c-0.14,0-0.27-0.13-0.27-0.27V58.01z"/>
			<path d="M59.05,56.17c0-0.14,0.12-0.27,0.27-0.27h5.94c0.16,0,0.27,0.13,0.27,0.27v1.56c0,0.14-0.11,0.27-0.27,0.27h-3.98v1.78
				h3.27c0.14,0,0.27,0.13,0.27,0.27v1.56c0,0.16-0.13,0.27-0.27,0.27h-3.27v1.94h3.98c0.16,0,0.27,0.13,0.27,0.27v1.56
				c0,0.14-0.11,0.27-0.27,0.27h-5.94c-0.16,0-0.27-0.13-0.27-0.27V56.17z"/>
			<path d="M72.44,63.89c0.56,0,1.03-0.46,1.03-1.05c0-0.57-0.62-1-1.18-1h-1.16v2.05H72.44z M72.26,59.98c0.54,0,1-0.46,1-1.03
				c0-0.57-0.46-0.98-1-0.98h-1.12v2.01H72.26z M68.9,56.17c0-0.14,0.11-0.27,0.27-0.27h3.35c1.69,0,3.09,1.16,3.09,2.67
				c0,1.11-0.99,1.91-1.66,2.27c0.76,0.32,1.92,1.02,1.92,2.34c0,1.61-1.42,2.77-3.13,2.77h-3.56c-0.16,0-0.27-0.13-0.27-0.27V56.17
				z"/>
		</g>
	</g>
</g>
</svg>
