<?xml version="1.0" encoding="utf-8"?>
<svg viewBox="204.493 142.248 45.71 45.51" xmlns="http://www.w3.org/2000/svg">
  <g transform="matrix(1, 0, 0, 1, 189.332687, 142.337509)">
    <defs>
      <path id="SVGID_1_" d="M18.29-0.09c-0.88,0-1.72,0.39-2.3,1.06c-0.58,0.67-0.83,1.55-0.7,2.43l4.55,30.34 c0.13,0.9,0.66,1.69,1.44,2.15l15.17,9.1c0.48,0.29,1.02,0.43,1.56,0.43c0.54,0,1.08-0.15,1.56-0.43l15.17-9.1 c0.78-0.47,1.31-1.26,1.44-2.15L60.74,3.4c0.13-0.87-0.13-1.76-0.7-2.43c-0.58-0.67-1.42-1.06-2.3-1.06H18.29z"/>
    </defs>
    <clipPath id="SVGID_2_">
      <path d="M18.29-0.09c-0.88,0-1.72,0.39-2.3,1.06c-0.58,0.67-0.83,1.55-0.7,2.43l4.55,30.34 c0.13,0.9,0.66,1.69,1.44,2.15l15.17,9.1c0.48,0.29,1.02,0.43,1.56,0.43c0.54,0,1.08-0.15,1.56-0.43l15.17-9.1 c0.78-0.47,1.31-1.26,1.44-2.15L60.74,3.4c0.13-0.87-0.13-1.76-0.7-2.43c-0.58-0.67-1.42-1.06-2.3-1.06H18.29z" transform="matrix(1, 0, 0, 1, 0, 0)" style="overflow: visible;"/>
    </clipPath>
    <linearGradient id="SVGID_3_" gradientUnits="userSpaceOnUse" x1="-38.7565" y1="113.2528" x2="-38.2705" y2="113.2528" gradientTransform="matrix(93.6442 0 0 -93.6442 3644.5796 10628.1377)">
      <stop offset="0" style="stop-color:#00AF4B"/>
      <stop offset="1" style="stop-color:#00FF4B"/>
    </linearGradient>
    <rect x="15.16" y="-0.09" class="st0" width="45.71" height="45.51" style="clip-path: url(#SVGID_2_); fill: url(#SVGID_3_);"/>
  </g>
  <g transform="matrix(1, 0, 0, 1, 189.332687, 142.337509)">
    <path class="st1" d="M38.01,32.7c-3.26,0-6.33-1.27-8.63-3.57c-2.31-2.31-3.58-5.37-3.58-8.63c0-3.26,1.27-6.33,3.58-8.63 c2.3-2.3,5.37-3.57,8.63-3.57c3.26,0,6.33,1.27,8.63,3.57l-3.24,3.24c-1.44-1.44-3.36-2.23-5.39-2.23c-2.04,0-3.95,0.8-5.39,2.23 c-1.44,1.44-2.23,3.36-2.23,5.39c0,2.04,0.79,3.95,2.23,5.39c1.44,1.44,3.36,2.23,5.39,2.23c2.04,0,3.95-0.8,5.39-2.23l3.24,3.24 C44.34,31.43,41.27,32.7,38.01,32.7" style="fill: rgb(255, 255, 255);"/>
  </g>
</svg>